<?xml version="1.0" encoding="UTF-8" standalone="no"?>
<svg
   xmlns:dc="http://purl.org/dc/elements/1.1/"
   xmlns:cc="http://creativecommons.org/ns#"
   xmlns:rdf="http://www.w3.org/1999/02/22-rdf-syntax-ns#"
   xmlns:svg="http://www.w3.org/2000/svg"
   xmlns="http://www.w3.org/2000/svg"
   xmlns:sodipodi="http://sodipodi.sourceforge.net/DTD/sodipodi-0.dtd"
   xmlns:inkscape="http://www.inkscape.org/namespaces/inkscape"
   version="1.1"
   id="svg2"
   viewBox="0 0 726.37794 170.07864"
   height="48mm"
   width="205mm"
   inkscape:version="0.91 r13725"
   sodipodi:docname="Metacritic logo4.svg">
  <sodipodi:namedview
     pagecolor="#ffffff"
     bordercolor="#666666"
     borderopacity="1"
     objecttolerance="10"
     gridtolerance="10"
     guidetolerance="10"
     inkscape:pageopacity="0"
     inkscape:pageshadow="2"
     inkscape:window-width="1056"
     inkscape:window-height="663"
     id="namedview16"
     showgrid="false"
     inkscape:zoom="0.70479192"
     inkscape:cx="346.44214"
     inkscape:cy="12.836259"
     inkscape:window-x="0"
     inkscape:window-y="0"
     inkscape:window-maximized="0"
     inkscape:current-layer="svg2" />
  <defs
     id="defs4" />
  <metadata
     id="metadata7">
    <rdf:RDF>
      <cc:Work
         rdf:about="">
        <dc:format>image/svg+xml</dc:format>
        <dc:type
           rdf:resource="http://purl.org/dc/dcmitype/StillImage" />
        <dc:title></dc:title>
      </cc:Work>
    </rdf:RDF>
  </metadata>
  <g
     transform="translate(0,-882.28411)"
     id="layer5">
    <path
       d="M 154.85638,965.03461 A 71.771339,71.771339 0 0 1 83.106027,1036.8059 71.771339,71.771339 0 0 1 11.313718,965.07657 71.771339,71.771339 0 0 1 83.022097,893.2633 71.771339,71.771339 0 0 1 154.85634,964.95068"
       id="path3481"
       style="fill:#000000;fill-opacity:1" />
  </g>
  <g
     transform="translate(0,-882.28411)"
     style="display:inline"
     id="layer2">
    <path
       id="path3402"
       d="m 84.325341,885.5858 a 82.074898,82.074898 0 0 0 -82.001954,82.12305 82.074898,82.074898 0 0 0 82.09961,82.02735 82.074898,82.074898 0 0 0 82.050773,-82.07618 l 0,-0.0957 A 82.074898,82.074898 0 0 0 84.325341,885.5858 Z m -0.375,17.54101 a 64.285713,64.285713 0 0 1 64.343749,64.21094 l 0,0.0742 A 64.285713,64.285713 0 0 1 84.026513,1031.6971 64.285713,64.285713 0 0 1 19.721825,967.44908 64.285713,64.285713 0 0 1 83.950341,903.12681 Z"
       style="fill:#ffce35;fill-opacity:1" />
  </g>
  <g
     transform="translate(0,-882.28411)"
     style="display:inline"
     id="layer4">
    <g
       transform="matrix(0.70710678,-0.70710678,0.70710678,0.70710678,0,0)"
       style="font-style:normal;font-weight:normal;font-size:133.71968079px;line-height:125%;font-family:sans-serif;letter-spacing:0px;word-spacing:0px;fill:#ffffff;fill-opacity:1;stroke:none;stroke-width:1px;stroke-linecap:butt;stroke-linejoin:miter;stroke-opacity:1"
       id="text3351">
      <path
         d="m -670.20077,773.35864 19.79052,0 0,-38.11011 c 0,-1.60463 0.13372,-3.47671 0.80232,-5.08134 1.20347,-3.343 4.27903,-7.35459 9.49409,-7.35459 6.41855,0 9.36038,5.61623 9.36038,13.90685 l 0,36.63919 19.79051,0 0,-38.24383 c 0,-1.60463 0.26744,-3.74415 0.80232,-5.21506 1.3372,-3.87787 4.68019,-7.08715 9.36038,-7.08715 6.55226,0 9.62782,5.48251 9.62782,14.97661 l 0,35.56943 19.79051,0 0,-38.51127 c 0,-19.52307 -9.4941,-28.34857 -22.06375,-28.34857 -4.81391,0 -8.8255,1.06976 -12.43593,3.20927 -3.07555,1.87208 -6.01738,4.41275 -8.42434,7.88947 l -0.26744,0 c -2.80811,-6.81971 -9.4941,-11.09874 -17.91844,-11.09874 -11.23245,0 -16.98239,6.15111 -19.79051,10.29642 l -0.40116,0 -0.93604,-8.8255 -17.11611,0 c 0.26744,5.74994 0.53487,12.70337 0.53487,20.86027 l 0,44.52865 z"
         style="font-style:normal;font-variant:normal;font-weight:bold;font-stretch:normal;font-family:'Myriad Hebrew';-inkscape-font-specification:'Myriad Hebrew Bold';fill:#ffffff"
         id="path3345" />
    </g>
    <g
       style="font-style:normal;font-weight:normal;font-size:127.30638123px;line-height:125%;font-family:sans-serif;letter-spacing:0px;word-spacing:0px;fill:#000000;fill-opacity:1;stroke:none;stroke-width:1px;stroke-linecap:butt;stroke-linejoin:miter;stroke-opacity:1"
       id="text3345">
      <path
         d="m 193.3395,1000.2548 18.84134,0 0,-36.2823 c 0,-1.52767 0.12731,-3.30996 0.76384,-4.83764 1.14576,-3.18266 4.0738,-7.00185 9.03875,-7.00185 6.11071,0 8.91145,5.34687 8.91145,13.23986 l 0,34.88193 18.84134,0 0,-36.4096 c 0,-1.52768 0.25462,-3.56458 0.76384,-4.96495 1.27306,-3.69189 4.45572,-6.74724 8.91145,-6.74724 6.23801,0 9.16606,5.21956 9.16606,14.25831 l 0,33.86348 18.84134,0 0,-36.66422 c 0,-18.58673 -9.03875,-26.98895 -21.00555,-26.98895 -4.58303,0 -8.40222,1.01845 -11.83949,3.05535 -2.92805,1.78229 -5.72879,4.20111 -8.02031,7.51108 l -0.25461,0 c -2.67343,-6.49262 -9.03875,-10.56643 -17.05905,-10.56643 -10.69374,0 -16.16791,5.85609 -18.84135,9.80259 l -0.38192,0 -0.89114,-8.40222 -16.29522,0 c 0.25461,5.47418 0.50923,12.09411 0.50923,19.8598 l 0,42.393 z"
         style="font-style:normal;font-variant:normal;font-weight:bold;font-stretch:normal;font-family:'Myriad Hebrew';-inkscape-font-specification:'Myriad Hebrew Bold';letter-spacing:-3.28275895px;fill:#000000"
         id="path3348" />
      <path
         d="m 354.45702,975.30277 c 0.25461,-1.40037 0.63653,-4.32842 0.63653,-7.63838 0,-15.40407 -7.63839,-31.06276 -27.75279,-31.06276 -21.64209,0 -31.44468,17.44098 -31.44468,33.22697 0,19.47787 12.09411,31.8266 33.22697,31.8266 8.40222,0 16.16791,-1.4004 22.53322,-3.94651 l -2.54612,-13.11255 c -5.21956,1.65498 -10.56643,2.54612 -17.18636,2.54612 -9.03876,0 -16.93175,-3.81919 -17.56828,-11.83949 l 40.10151,0 z M 314.2282,962.06291 c 0.50922,-5.21956 3.81919,-12.60333 11.9668,-12.60333 8.91145,0 10.94835,7.89299 10.94835,12.60333 l -22.91515,0 z"
         style="font-style:normal;font-variant:normal;font-weight:bold;font-stretch:normal;font-family:'Myriad Hebrew';-inkscape-font-specification:'Myriad Hebrew Bold';letter-spacing:-3.28275895px;fill:#000000"
         id="path3350" />
      <path
         d="m 365.98556,924.50752 0,13.49448 -8.27492,0 0,14.25832 8.27492,0 0,25.46127 c 0,8.78414 1.78229,14.76754 5.34686,18.45943 3.05536,3.18266 8.27492,5.47418 14.51293,5.47418 5.47418,0 10.05721,-0.7638 12.60333,-1.7823 l -0.1273,-14.64023 c -1.40037,0.25461 -3.30997,0.50922 -5.72879,0.50922 -5.85609,0 -7.63838,-3.43727 -7.63838,-10.94834 l 0,-22.53323 13.87639,0 0,-14.25832 -13.87639,0 0,-17.82289 -18.96865,4.32841 z"
         style="font-style:normal;font-variant:normal;font-weight:bold;font-stretch:normal;font-family:'Myriad Hebrew';-inkscape-font-specification:'Myriad Hebrew Bold';letter-spacing:-3.28275895px;fill:#000000"
         id="path3352" />
      <path
         d="m 458.71568,963.46328 c 0,-14.64024 -6.61993,-26.86165 -27.37087,-26.86165 -11.33027,0 -19.8598,3.05535 -24.18821,5.47418 l 3.56457,12.47602 c 4.07381,-2.54613 10.82105,-4.71034 17.18637,-4.71034 9.54797,0 11.33026,4.71034 11.33026,8.02031 l 0,0.89114 c -22.024,-0.1273 -36.53693,7.63838 -36.53693,23.80629 0,9.9299 7.51108,19.09597 20.11441,19.09597 7.38377,0 13.74909,-2.67344 17.82289,-7.63839 l 0.38192,0 1.14576,6.23799 17.44097,0 c -0.63653,-3.43725 -0.89114,-9.16604 -0.89114,-15.14944 l 0,-21.64208 z m -18.84134,14.13101 c 0,1.14575 -0.12731,2.29151 -0.38192,3.30996 -1.27307,3.9465 -5.21956,7.12916 -10.05721,7.12916 -4.32841,0 -7.63838,-2.41882 -7.63838,-7.38377 0,-7.51108 7.893,-9.9299 18.07751,-9.80259 l 0,6.74724 z"
         style="font-style:normal;font-variant:normal;font-weight:bold;font-stretch:normal;font-family:'Myriad Hebrew';-inkscape-font-specification:'Myriad Hebrew Bold';letter-spacing:-3.28275895px;fill:#000000"
         id="path3354" />
      <path
         d="m 515.30473,984.34152 c -2.92804,1.27307 -6.49262,2.03691 -11.07565,2.03691 -9.42068,0 -17.05906,-5.9834 -17.05906,-17.44098 -0.1273,-10.18451 6.49263,-17.44097 16.67714,-17.44097 5.09225,0 8.52953,0.89114 10.82104,1.90959 l 3.05535,-14.38562 c -4.0738,-1.52767 -9.67528,-2.41882 -14.76754,-2.41882 -23.16976,0 -35.64578,14.89485 -35.64578,33.09966 0,19.60518 12.85794,31.95391 32.97235,31.95391 7.38377,0 13.87639,-1.4004 17.31367,-2.92805 l -2.29152,-14.38563 z"
         style="font-style:normal;font-variant:normal;font-weight:bold;font-stretch:normal;font-family:'Myriad Hebrew';-inkscape-font-specification:'Myriad Hebrew Bold';letter-spacing:-3.28275895px;fill:#000000"
         id="path3356" />
      <path
         d="m 525.0291,1000.2548 19.35057,0 0,-31.57196 c 0,-1.52768 0.12731,-3.05535 0.38192,-4.32842 1.27306,-5.9834 6.11071,-9.80259 13.23986,-9.80259 2.16421,0 3.8192,0.25461 5.21957,0.63653 l 0,-18.33212 c -1.40037,-0.25461 -2.29152,-0.25461 -4.07381,-0.25461 -5.9834,0 -13.62178,3.81919 -16.80444,12.85795 l -0.50923,0 -0.63653,-11.45758 -16.67713,0 c 0.25461,5.34687 0.50922,11.33027 0.50922,20.49633 l 0,41.75647 z"
         style="font-style:normal;font-variant:normal;font-weight:bold;font-stretch:normal;font-family:'Myriad Hebrew';-inkscape-font-specification:'Myriad Hebrew Bold';letter-spacing:-3.28275895px;fill:#000000"
         id="path3358" />
      <path
         d="m 589.33408,1000.2548 0,-62.2528 -19.35057,0 0,62.2528 19.35057,0 z m -9.67529,-89.36906 c -6.23801,0 -10.31181,4.20111 -10.18451,9.80259 -0.1273,5.34687 3.9465,9.67529 10.05721,9.67529 6.36532,0 10.43912,-4.32842 10.43912,-9.67529 -0.12731,-5.60148 -4.0738,-9.80259 -10.31182,-9.80259 z"
         style="font-style:normal;font-variant:normal;font-weight:bold;font-stretch:normal;font-family:'Myriad Hebrew';-inkscape-font-specification:'Myriad Hebrew Bold';letter-spacing:-3.28275895px;fill:#000000"
         id="path3360" />
      <path
         d="m 604.18453,924.50752 0,13.49448 -8.27491,0 0,14.25832 8.27491,0 0,25.46127 c 0,8.78414 1.78229,14.76754 5.34687,18.45943 3.05535,3.18266 8.27491,5.47418 14.51293,5.47418 5.47417,0 10.0572,-0.7638 12.60333,-1.7823 l -0.12731,-14.64023 c -1.40037,0.25461 -3.30996,0.50922 -5.72879,0.50922 -5.85609,0 -7.63838,-3.43727 -7.63838,-10.94834 l 0,-22.53323 13.8764,0 0,-14.25832 -13.8764,0 0,-17.82289 -18.96865,4.32841 z"
         style="font-style:normal;font-variant:normal;font-weight:bold;font-stretch:normal;font-family:'Myriad Hebrew';-inkscape-font-specification:'Myriad Hebrew Bold';letter-spacing:-3.28275895px;fill:#000000"
         id="path3362" />
      <path
         d="m 664.32422,1000.2548 0,-62.2528 -19.35057,0 0,62.2528 19.35057,0 z m -9.67528,-89.36906 c -6.23802,0 -10.31182,4.20111 -10.18451,9.80259 -0.12731,5.34687 3.94649,9.67529 10.0572,9.67529 6.36532,0 10.43912,-4.32842 10.43912,-9.67529 -0.1273,-5.60148 -4.0738,-9.80259 -10.31181,-9.80259 z"
         style="font-style:normal;font-variant:normal;font-weight:bold;font-stretch:normal;font-family:'Myriad Hebrew';-inkscape-font-specification:'Myriad Hebrew Bold';letter-spacing:-3.28275895px;fill:#000000"
         id="path3364" />
      <path
         d="m 720.93114,984.34152 c -2.92805,1.27307 -6.49263,2.03691 -11.07566,2.03691 -9.42067,0 -17.05905,-5.9834 -17.05905,-17.44098 -0.12731,-10.18451 6.49262,-17.44097 16.67713,-17.44097 5.09226,0 8.52953,0.89114 10.82104,1.90959 l 3.05536,-14.38562 c -4.07381,-1.52767 -9.67529,-2.41882 -14.76754,-2.41882 -23.16976,0 -35.64579,14.89485 -35.64579,33.09966 0,19.60518 12.85794,31.95391 32.97235,31.95391 7.38377,0 13.8764,-1.4004 17.31367,-2.92805 l -2.29151,-14.38563 z"
         style="font-style:normal;font-variant:normal;font-weight:bold;font-stretch:normal;font-family:'Myriad Hebrew';-inkscape-font-specification:'Myriad Hebrew Bold';letter-spacing:-3.28275895px;fill:#000000"
         id="path3366" />
    </g>
  </g>
</svg>
